<svg xmlns="http://www.w3.org/2000/svg" version="1.1" xmlns:xlink="http://www.w3.org/1999/xlink" xmlns:svgjs="http://svgjs.com/svgjs" width="1440" height="560" preserveAspectRatio="none" viewBox="0 0 1440 560"><g mask="url(&quot;#SvgjsMask1113&quot;)" fill="none"><path d="M -567.0643117539074,210 C -471.06,258 -279.06,469.6 -87.06431175390745,450 C 104.94,430.4 200.94,114.2 392.9356882460926,112 C 584.94,109.8 680.94,420.4 872.9356882460926,439 C 1064.94,457.6 1239.52,222.8 1352.9356882460925,205 C 1466.35,187.2 1422.59,321 1440,350" stroke="rgba(242, 130, 0, 0.54)" stroke-width="2"></path><path d="M -766.0793997344929,189 C -670.08,218.2 -478.08,342 -286.0793997344929,335 C -94.08,328 1.92,144.6 193.92060026550712,154 C 385.92,163.4 481.92,370.6 673.9206002655071,382 C 865.92,393.4 1000.7,218.4 1153.9206002655071,211 C 1307.14,203.6 1382.78,318.2 1440,345" stroke="rgba(201, 161, 99, 0.54)" stroke-width="2"></path><path d="M -896.047384905839,178 C -800.05,205.2 -608.05,325.8 -416.0473849058389,314 C -224.05,302.2 -128.05,121.2 63.952615094161104,119 C 255.95,116.8 351.95,286.8 543.952615094161,303 C 735.95,319.2 844.74,177.4 1023.952615094161,200 C 1203.16,222.6 1356.79,372.8 1440,416" stroke="rgba(242, 130, 0, 0.54)" stroke-width="2"></path><path d="M -369.799799938399,118 C -273.8,172 -81.8,388.6 110.20020006160095,388 C 302.2,387.4 398.2,106.6 590.200200061601,115 C 782.2,123.4 878.2,402.2 1070.200200061601,430 C 1262.2,457.8 1476.24,254.6 1550.200200061601,254 C 1624.16,253.4 1462.04,392.4 1440,427" stroke="rgba(201, 161, 99, 0.54)" stroke-width="2"></path><path d="M -787.4362261627077,214 C -691.44,238 -499.44,346.6 -307.43622616270767,334 C -115.44,321.4 -19.44,145.8 172.56377383729233,151 C 364.56,156.2 460.56,368.2 652.5637738372923,360 C 844.56,351.8 975.08,100 1132.5637738372923,110 C 1290.05,120 1378.51,350 1440,410" stroke="rgba(242, 130, 0, 0.54)" stroke-width="2"></path></g><defs><mask id="SvgjsMask1113"><rect width="1440" height="560" fill="#ffffff"></rect></mask></defs></svg>