<svg xmlns="http://www.w3.org/2000/svg" version="1.1" xmlns:xlink="http://www.w3.org/1999/xlink" xmlns:svgjs="http://svgjs.com/svgjs" width="1440" height="560" preserveAspectRatio="none" viewBox="0 0 1440 560"><g mask="url(&quot;#SvgjsMask1028&quot;)" fill="none"><path d="M0 0L621.11 0L0 169.58z" fill="rgba(255, 255, 255, .1)"></path><path d="M0 169.58L621.11 0L1053.3600000000001 0L0 218.35000000000002z" fill="rgba(255, 255, 255, .075)"></path><path d="M0 218.35000000000002L1053.3600000000001 0L1137.0500000000002 0L0 308.67z" fill="rgba(255, 255, 255, .05)"></path><path d="M0 308.67L1137.0500000000002 0L1193.4 0L0 481.04z" fill="rgba(255, 255, 255, .025)"></path><path d="M1440 560L1063.18 560L1440 316.45z" fill="rgba(0, 0, 0, .1)"></path><path d="M1440 316.45L1063.18 560L775.0300000000001 560L1440 227.7z" fill="rgba(0, 0, 0, .075)"></path><path d="M1440 227.7L775.03 560L381.36999999999995 560L1440 132.14999999999998z" fill="rgba(0, 0, 0, .05)"></path><path d="M1440 132.14999999999998L381.3699999999999 560L227.4499999999999 560L1440 124.69999999999997z" fill="rgba(0, 0, 0, .025)"></path></g><defs><mask id="SvgjsMask1028"><rect width="1440" height="560" fill="#ffffff"></rect></mask></defs></svg>