<svg xmlns="http://www.w3.org/2000/svg" version="1.1" xmlns:xlink="http://www.w3.org/1999/xlink" xmlns:svgjs="http://svgjs.com/svgjs" width="1440" height="250" preserveAspectRatio="none" viewBox="0 0 1440 250"><g mask="url(&quot;#SvgjsMask1003&quot;)" fill="none"><path d="M5 250L255 0L544.5 0L294.5 250z" fill="url(#SvgjsLinearGradient1004)"></path><path d="M274.6 250L524.6 0L812.6 0L562.6 250z" fill="url(#SvgjsLinearGradient1004)"></path><path d="M477.20000000000005 250L727.2 0L767.7 0L517.7 250z" fill="url(#SvgjsLinearGradient1004)"></path><path d="M759.8000000000001 250L1009.8000000000001 0L1150.8000000000002 0L900.8000000000001 250z" fill="url(#SvgjsLinearGradient1004)"></path><path d="M1410 250L1160 0L1068.5 0L1318.5 250z" fill="url(#SvgjsLinearGradient1005)"></path><path d="M1169.4 250L919.4000000000001 0L835.4000000000001 0L1085.4 250z" fill="url(#SvgjsLinearGradient1005)"></path><path d="M929.8 250L679.8 0L402.29999999999995 0L652.3 250z" fill="url(#SvgjsLinearGradient1005)"></path><path d="M718.1999999999999 250L468.19999999999993 0L301.69999999999993 0L551.6999999999999 250z" fill="url(#SvgjsLinearGradient1005)"></path><path d="M1306.0074871869406 250L1440 116.00748718694052L1440 250z" fill="url(#SvgjsLinearGradient1004)"></path><path d="M0 250L133.99251281305948 250L 0 116.00748718694052z" fill="url(#SvgjsLinearGradient1005)"></path></g><defs><mask id="SvgjsMask1003"><rect width="1440" height="250" fill="#ffffff"></rect></mask><linearGradient x1="0%" y1="100%" x2="100%" y2="0%" id="SvgjsLinearGradient1004"><stop stop-color="rgba(15, 70, 185, 0.2)" offset="0"></stop><stop stop-opacity="0" stop-color="rgba(15, 70, 185, 0.2)" offset="0.66"></stop></linearGradient><linearGradient x1="100%" y1="100%" x2="0%" y2="0%" id="SvgjsLinearGradient1005"><stop stop-color="rgba(15, 70, 185, 0.2)" offset="0"></stop><stop stop-opacity="0" stop-color="rgba(15, 70, 185, 0.2)" offset="0.66"></stop></linearGradient></defs></svg>