<svg xmlns="http://www.w3.org/2000/svg" version="1.1" xmlns:xlink="http://www.w3.org/1999/xlink" xmlns:svgjs="http://svgjs.com/svgjs" width="1920" height="1080" preserveAspectRatio="none" viewBox="0 0 1920 1080"><g mask="url(&quot;#SvgjsMask1015&quot;)" fill="none"><g transform="translate(0, 0)" stroke-linecap="round"><path d="M340 478.95 L340 601.04" stroke-width="15" stroke="rgba(242, 130, 0, 1)"></path><path d="M360 254.89 L360 825.11" stroke-width="15" stroke="rgba(16, 21, 96, 1)"></path><path d="M380 485.75 L380 594.25" stroke-width="15" stroke="rgba(16, 21, 96, 1)"></path><path d="M400 293.79 L400 786.21" stroke-width="15" stroke="rgba(242, 130, 0, 1)"></path><path d="M420 419.7 L420 660.3" stroke-width="15" stroke="rgba(242, 130, 0, 1)"></path><path d="M440 431.26 L440 648.74" stroke-width="15" stroke="rgba(242, 130, 0, 1)"></path><path d="M460 302.45 L460 777.55" stroke-width="15" stroke="rgba(16, 21, 96, 1)"></path><path d="M480 243.32 L480 836.67" stroke-width="15" stroke="rgba(16, 21, 96, 1)"></path><path d="M500 475.62 L500 604.38" stroke-width="15" stroke="rgba(242, 130, 0, 1)"></path><path d="M520 276.45 L520 803.55" stroke-width="15" stroke="rgba(16, 21, 96, 1)"></path><path d="M540 384.6 L540 695.4" stroke-width="15" stroke="rgba(16, 21, 96, 1)"></path><path d="M560 263.46 L560 816.54" stroke-width="15" stroke="rgba(16, 21, 96, 1)"></path><path d="M580 362.92 L580 717.08" stroke-width="15" stroke="rgba(16, 21, 96, 1)"></path><path d="M600 202.67 L600 877.33" stroke-width="15" stroke="rgba(16, 21, 96, 1)"></path><path d="M620 427.74 L620 652.26" stroke-width="15" stroke="rgba(242, 130, 0, 1)"></path><path d="M640 361.22 L640 718.78" stroke-width="15" stroke="rgba(242, 130, 0, 1)"></path><path d="M660 339.94 L660 740.06" stroke-width="15" stroke="rgba(242, 130, 0, 1)"></path><path d="M680 433.61 L680 646.39" stroke-width="15" stroke="rgba(242, 130, 0, 1)"></path><path d="M700 222.95 L700 857.05" stroke-width="15" stroke="rgba(16, 21, 96, 1)"></path><path d="M720 344.53 L720 735.47" stroke-width="15" stroke="rgba(16, 21, 96, 1)"></path><path d="M740 267.15 L740 812.85" stroke-width="15" stroke="rgba(16, 21, 96, 1)"></path><path d="M760 488.33 L760 591.66" stroke-width="15" stroke="rgba(242, 130, 0, 1)"></path><path d="M780 304.16 L780 775.84" stroke-width="15" stroke="rgba(242, 130, 0, 1)"></path><path d="M800 484.49 L800 595.51" stroke-width="15" stroke="rgba(16, 21, 96, 1)"></path><path d="M820 302.5 L820 777.5" stroke-width="15" stroke="rgba(16, 21, 96, 1)"></path><path d="M840 408.56 L840 671.43" stroke-width="15" stroke="rgba(242, 130, 0, 1)"></path><path d="M860 331.04 L860 748.96" stroke-width="15" stroke="rgba(16, 21, 96, 1)"></path><path d="M880 477.57 L880 602.42" stroke-width="15" stroke="rgba(242, 130, 0, 1)"></path><path d="M900 461.81 L900 618.18" stroke-width="15" stroke="rgba(242, 130, 0, 1)"></path><path d="M920 222.61 L920 857.39" stroke-width="15" stroke="rgba(242, 130, 0, 1)"></path><path d="M940 227.69 L940 852.31" stroke-width="15" stroke="rgba(242, 130, 0, 1)"></path><path d="M960 499.38 L960 580.63" stroke-width="15" stroke="rgba(16, 21, 96, 1)"></path><path d="M980 502.78 L980 577.22" stroke-width="15" stroke="rgba(242, 130, 0, 1)"></path><path d="M1000 204.88 L1000 875.12" stroke-width="15" stroke="rgba(16, 21, 96, 1)"></path><path d="M1020 234.57 L1020 845.42" stroke-width="15" stroke="rgba(16, 21, 96, 1)"></path><path d="M1040 339.83 L1040 740.17" stroke-width="15" stroke="rgba(242, 130, 0, 1)"></path><path d="M1060 308.87 L1060 771.13" stroke-width="15" stroke="rgba(16, 21, 96, 1)"></path><path d="M1080 197.5 L1080 882.5" stroke-width="15" stroke="rgba(16, 21, 96, 1)"></path><path d="M1100 330.27 L1100 749.73" stroke-width="15" stroke="rgba(242, 130, 0, 1)"></path><path d="M1120 202.71 L1120 877.29" stroke-width="15" stroke="rgba(242, 130, 0, 1)"></path><path d="M1140 481.22 L1140 598.78" stroke-width="15" stroke="rgba(16, 21, 96, 1)"></path><path d="M1160 319.23 L1160 760.77" stroke-width="15" stroke="rgba(16, 21, 96, 1)"></path><path d="M1180 441.5 L1180 638.5" stroke-width="15" stroke="rgba(242, 130, 0, 1)"></path><path d="M1200 237.51 L1200 842.49" stroke-width="15" stroke="rgba(16, 21, 96, 1)"></path><path d="M1220 414.29 L1220 665.71" stroke-width="15" stroke="rgba(242, 130, 0, 1)"></path><path d="M1240 334.6 L1240 745.4" stroke-width="15" stroke="rgba(16, 21, 96, 1)"></path><path d="M1260 323.89 L1260 756.11" stroke-width="15" stroke="rgba(16, 21, 96, 1)"></path><path d="M1280 332.36 L1280 747.64" stroke-width="15" stroke="rgba(16, 21, 96, 1)"></path><path d="M1300 312.65 L1300 767.35" stroke-width="15" stroke="rgba(16, 21, 96, 1)"></path><path d="M1320 327.38 L1320 752.62" stroke-width="15" stroke="rgba(16, 21, 96, 1)"></path><path d="M1340 382.04 L1340 697.96" stroke-width="15" stroke="rgba(242, 130, 0, 1)"></path><path d="M1360 447.82 L1360 632.17" stroke-width="15" stroke="rgba(242, 130, 0, 1)"></path><path d="M1380 311.68 L1380 768.33" stroke-width="15" stroke="rgba(242, 130, 0, 1)"></path><path d="M1400 423.57 L1400 656.43" stroke-width="15" stroke="rgba(16, 21, 96, 1)"></path><path d="M1420 231.59 L1420 848.41" stroke-width="15" stroke="rgba(242, 130, 0, 1)"></path><path d="M1440 231.56 L1440 848.44" stroke-width="15" stroke="rgba(242, 130, 0, 1)"></path><path d="M1460 436 L1460 644" stroke-width="15" stroke="rgba(16, 21, 96, 1)"></path><path d="M1480 468.27 L1480 611.73" stroke-width="15" stroke="rgba(242, 130, 0, 1)"></path><path d="M1500 323.44 L1500 756.56" stroke-width="15" stroke="rgba(16, 21, 96, 1)"></path><path d="M1520 353.24 L1520 726.76" stroke-width="15" stroke="rgba(16, 21, 96, 1)"></path><path d="M1540 254.87 L1540 825.13" stroke-width="15" stroke="rgba(16, 21, 96, 1)"></path><path d="M1560 473.27 L1560 606.73" stroke-width="15" stroke="rgba(242, 130, 0, 1)"></path><path d="M1580 249.71 L1580 830.29" stroke-width="15" stroke="rgba(242, 130, 0, 1)"></path></g></g><defs><mask id="SvgjsMask1015"><rect width="1920" height="1080" fill="#ffffff"></rect></mask></defs></svg>