<svg xmlns="http://www.w3.org/2000/svg" version="1.1" xmlns:xlink="http://www.w3.org/1999/xlink" xmlns:svgjs="http://svgjs.com/svgjs" width="1920" height="1080" preserveAspectRatio="none" viewBox="0 0 1920 1080"><g mask="url(&quot;#SvgjsMask1049&quot;)" fill="none"><rect width="1920" height="1080" x="0" y="0" fill="rgba(50, 50, 93, 1)"></rect><path d="M0,744.532C144.26,738.556,287.139,713.688,411.304,640.001C538.368,564.593,650.929,459.654,708.978,323.78C766.342,189.508,738.373,40.853,729.541,-104.892C719.898,-264.033,752.219,-441.196,654.968,-567.533C556.797,-695.064,381.43,-729.818,223.735,-761.972C76.055,-792.084,-73.023,-783.37,-218.965,-745.725C-368.907,-707.049,-517.882,-653.253,-626.318,-542.708C-738.469,-428.376,-821.357,-279.497,-832.983,-119.765C-844.286,35.519,-758.593,175.393,-688.713,314.525C-621.294,448.757,-561.219,595.456,-433.803,675.01C-307.014,754.172,-149.345,750.719,0,744.532" fill="#21213c"></path><path d="M1920 1717.734C2069.035 1716.034 2229.935 1837.935 2356.162 1758.681 2482.18 1679.558 2473.564 1493.292 2508.014 1348.537 2536.2799999999997 1229.767 2561.014 1111.081 2538.855 991.022 2517.282 874.137 2457.367 771.437 2384.209 677.76 2307.827 579.9549999999999 2214.783 502.80600000000004 2108.087 439.433 1971.874 358.529 1837.02 249.24699999999996 1678.882 258.827 1510.521 269.02700000000004 1357.641 369.775 1241.346 491.943 1121.905 617.4159999999999 1027.934 777.5799999999999 1020.325 950.646 1012.971 1117.9 1119.396 1262.18 1201.054 1408.3310000000001 1276.415 1543.212 1335.4740000000002 1707.6280000000002 1477.396 1768.705 1616.63 1828.625 1768.43 1719.463 1920 1717.734" fill="#44447e"></path></g><defs><mask id="SvgjsMask1049"><rect width="1920" height="1080" fill="#ffffff"></rect></mask></defs></svg>