<svg xmlns="http://www.w3.org/2000/svg" version="1.1" xmlns:xlink="http://www.w3.org/1999/xlink" xmlns:svgjs="http://svgjs.com/svgjs" width="1920" height="1080" preserveAspectRatio="none" viewBox="0 0 1920 1080"><g mask="url(&quot;#SvgjsMask1011&quot;)" fill="none"><path d="M1952 1080L0 1080 L0 818.83Q77.23 736.06, 160 813.29Q249.26 742.55, 320 831.81Q351.34 767.14, 416 798.48Q456.12 742.6, 512 782.71Q582.4 757.12, 608 827.52Q654.07 713.59, 768 759.66Q887.02 718.68, 928 837.71Q957.11 770.82, 1024 799.93Q1131.87 747.79, 1184 855.66Q1216.89 792.56, 1280 825.45Q1367.09 752.54, 1440 839.62Q1489.76 729.38, 1600 779.15Q1655.52 738.67, 1696 794.2Q1760.51 698.72, 1856 763.23Q1929.25 740.48, 1952 813.73z" fill="rgba(24, 47, 93, 0.1)"></path><path d="M1952 1080L0 1080 L0 903.37Q68.69 876.06, 96 944.74Q96.44 849.18, 192 849.62Q242.71 804.33, 288 855.04Q406.55 813.59, 448 932.13Q501.27 825.4, 608 878.68Q645.09 819.76, 704 856.85Q806.58 799.43, 864 902.01Q928.57 870.58, 960 935.14Q995.63 810.77, 1120 846.41Q1229.87 796.27, 1280 906.14Q1344.74 874.88, 1376 939.63Q1445.49 849.12, 1536 918.61Q1607.35 829.96, 1696 901.31Q1731.92 841.23, 1792 877.16Q1902.3 827.45, 1952 937.75z" fill="rgba(37, 70, 125, 0.1)"></path><path d="M1952 1080L0 1080 L0 929.06Q124.03 893.09, 160 1017.12Q212.71 909.83, 320 962.53Q384.7 931.23, 416 995.93Q437.69 921.62, 512 943.3Q612.8 884.1, 672 984.89Q734.23 951.12, 768 1013.35Q769.8 919.15, 864 920.95Q940.91 901.87, 960 978.78Q1024.3 883.08, 1120 947.37Q1233.2 900.58, 1280 1013.78Q1341.95 915.73, 1440 977.68Q1514.8 956.47, 1536 1031.27Q1575.76 975.03, 1632 1014.8Q1693.91 916.71, 1792 978.63Q1854.92 881.56, 1952 944.48z" fill="rgba(53, 108, 177, 0.1)"></path><path d="M1984 1080L0 1080 L0 1036.71Q100.07 976.78, 160 1076.84Q207.31 964.15, 320 1011.46Q427.57 959.03, 480 1066.59Q509.04 999.63, 576 1028.66Q609.22 965.88, 672 999.11Q742.09 973.2, 768 1043.29Q871.1 986.38, 928 1089.48Q932.6 998.08, 1024 1002.67Q1104.12 986.79, 1120 1066.9Q1154.87 1005.77, 1216 1040.64Q1258.76 987.4, 1312 1030.16Q1428.54 986.7, 1472 1103.24Q1500.09 1035.33, 1568 1063.41Q1637.42 972.84, 1728 1042.26Q1796.36 950.62, 1888 1018.98Q1971.57 1006.55, 1984 1090.12z" fill="rgba(255, 255, 255, 0.14)"></path></g><defs><mask id="SvgjsMask1011"><rect width="1920" height="1080" fill="#ffffff"></rect></mask></defs></svg>