<svg xmlns="http://www.w3.org/2000/svg" version="1.1" xmlns:xlink="http://www.w3.org/1999/xlink" xmlns:svgjs="http://svgjs.com/svgjs" width="1920" height="400" preserveAspectRatio="none" viewBox="0 0 1920 400"><g mask="url(&quot;#SvgjsMask1049&quot;)" fill="none"><path d="M2016 400L0 400 L0 205.68Q98.85 144.53, 160 243.38Q226.4 149.78, 320 216.18Q394.17 194.35, 416 268.52Q475.47 167.99, 576 227.45Q671.27 162.72, 736 257.99Q776.07 202.06, 832 242.12Q891.36 141.48, 992 200.84Q1105.64 154.48, 1152 268.12Q1215.61 171.73, 1312 235.33Q1347.64 174.98, 1408 210.62Q1508.1 150.72, 1568 250.81Q1654.3 177.11, 1728 263.4Q1764.1 203.5, 1824 239.59Q1863.56 183.15, 1920 222.71Q1983.24 189.95, 2016 253.19z" fill="rgba(255, 255, 255, 0.1)"></path><path d="M2048 400L0 400 L0 298.48Q68.14 206.63, 160 274.77Q262.24 217, 320 319.24Q351.91 255.15, 416 287.06Q480.6 191.66, 576 256.27Q649.55 233.81, 672 307.36Q701.88 241.24, 768 271.12Q859.86 202.98, 928 294.84Q1002.36 209.2, 1088 283.56Q1180.38 215.94, 1248 308.33Q1301.23 201.56, 1408 254.78Q1498.21 184.99, 1568 275.2Q1662.34 209.54, 1728 303.88Q1799.01 214.89, 1888 285.91Q1953.21 191.13, 2048 256.34z" fill="rgba(255, 255, 255, 0.4)"></path><path d="M1984 400L0 400 L0 338.23Q34.77 277, 96 311.77Q181.98 237.75, 256 323.73Q317.47 289.2, 352 350.66Q410.05 248.71, 512 306.76Q576.5 275.26, 608 339.77Q694.91 266.68, 768 353.59Q822.5 312.08, 864 366.58Q923.55 266.13, 1024 325.68Q1082.15 287.84, 1120 345.99Q1177.63 307.63, 1216 365.26Q1267.91 257.17, 1376 309.09Q1430.82 267.9, 1472 322.72Q1571.49 262.21, 1632 361.7Q1672.71 306.41, 1728 347.12Q1795.5 254.62, 1888 322.12Q1942.15 280.27, 1984 334.42z" fill="rgba(255, 255, 255, 0.6)"></path><path d="M2016 400L0 400 L0 363.56Q66.69 334.25, 96 400.93Q118.7 327.63, 192 350.34Q248.9 311.24, 288 368.14Q348.47 332.61, 384 393.07Q472.64 321.71, 544 410.35Q593.85 300.2, 704 350.04Q762.99 313.03, 800 372.02Q871.16 347.18, 896 418.34Q961.19 323.53, 1056 388.72Q1097.43 334.15, 1152 375.59Q1251.36 314.95, 1312 414.31Q1379.85 322.16, 1472 390.01Q1506.89 328.9, 1568 363.8Q1643.15 342.95, 1664 418.1Q1700.4 358.5, 1760 394.91Q1829.61 304.51, 1920 374.12Q1962.92 321.05, 2016 363.97z" fill="white"></path></g><defs><mask id="SvgjsMask1049"><rect width="1920" height="400" fill="#ffffff"></rect></mask></defs></svg>