<?xml version="1.0" standalone="no"?>
<!DOCTYPE svg PUBLIC "-//W3C//DTD SVG 20010904//EN"
 "http://www.w3.org/TR/2001/REC-SVG-20010904/DTD/svg10.dtd">
<svg version="1.0" xmlns="http://www.w3.org/2000/svg"
 width="2048.000000pt" height="2048.000000pt" viewBox="0 0 2048.000000 2048.000000"
 preserveAspectRatio="xMidYMid meet">

<g transform="translate(0.000000,2048.000000) scale(0.100000,-0.100000)"
fill="#000000" stroke="none">
<path d="M5019 16674 c-569 -103 -1081 -583 -1428 -1341 -107 -233 -213 -539
-213 -611 0 -157 160 -266 297 -203 70 32 110 87 146 203 106 344 281 702 465
949 254 341 550 543 850 579 439 53 876 -300 1148 -930 71 -166 116 -300 171
-510 28 -107 55 -189 70 -212 57 -87 184 -118 276 -67 107 59 132 161 84 349
-153 608 -395 1074 -721 1390 -187 181 -347 283 -548 352 -193 65 -417 85
-597 52z"/>
<path d="M14810 16674 c-184 -31 -405 -127 -565 -246 -38 -29 -119 -100 -179
-158 -326 -316 -568 -782 -721 -1390 -48 -188 -23 -290 84 -349 92 -51 219
-20 276 67 15 23 42 105 70 212 101 390 230 685 405 930 454 635 1056 686
1591 133 265 -273 497 -691 638 -1151 36 -116 76 -171 146 -203 137 -63 297
46 297 203 0 72 -106 378 -213 611 -434 948 -1130 1458 -1829 1341z"/>
<path d="M5450 12895 c-327 -46 -596 -156 -853 -349 -582 -438 -847 -1185
-670 -1891 201 -808 928 -1375 1763 -1375 295 0 564 68 840 211 167 87 287
176 435 324 156 156 241 273 335 459 224 444 261 942 104 1400 -228 662 -798
1129 -1494 1222 -129 17 -333 16 -460 -1z m570 -463 c198 -52 343 -122 509
-247 264 -199 444 -491 512 -834 30 -150 30 -375 0 -521 -120 -576 -555 -995
-1136 -1096 -68 -12 -133 -15 -265 -11 -153 4 -190 8 -290 35 -542 141 -930
562 -1025 1113 -20 117 -20 342 0 460 47 269 184 535 377 731 175 176 385 298
630 363 145 39 197 44 393 41 163 -3 191 -6 295 -34z"/>
<path d="M14310 12895 c-374 -52 -738 -224 -1004 -475 -415 -394 -626 -955
-565 -1508 33 -309 153 -628 326 -872 88 -123 301 -336 423 -422 111 -78 288
-173 415 -221 673 -256 1450 -80 1945 439 528 554 657 1365 326 2048 -211 435
-581 767 -1033 926 -248 88 -573 121 -833 85z m562 -463 c265 -69 475 -187
656 -370 193 -196 330 -462 377 -731 20 -118 20 -343 0 -460 -23 -131 -60
-253 -110 -358 -180 -381 -504 -648 -915 -755 -100 -27 -137 -31 -290 -35
-249 -7 -428 28 -627 122 -406 192 -682 543 -774 985 -30 146 -30 371 0 521
68 343 248 635 512 834 192 145 375 225 614 271 48 9 128 12 255 10 167 -3
197 -7 302 -34z"/>
<path d="M9900 10236 c-275 -61 -502 -253 -599 -505 -43 -112 -55 -183 -54
-311 1 -225 85 -423 246 -582 95 -94 193 -153 330 -197 l67 -23 0 -238 c0
-232 -1 -242 -29 -352 -72 -276 -207 -518 -403 -724 -237 -248 -557 -417 -901
-476 -103 -17 -150 -20 -307 -15 -269 6 -443 49 -670 161 -332 165 -587 422
-745 751 -91 189 -136 359 -155 576 -13 148 -22 179 -63 226 -115 131 -330 76
-369 -95 -14 -65 0 -236 33 -408 43 -223 149 -491 272 -686 l54 -86 -141 -71
c-186 -93 -291 -157 -439 -268 -381 -285 -682 -591 -894 -908 -291 -434 -458
-987 -422 -1401 33 -384 232 -790 546 -1115 231 -239 468 -389 768 -488 259
-85 491 -116 803 -108 301 7 468 38 932 174 124 36 254 74 290 84 76 20 350
118 498 178 196 79 658 284 807 358 176 89 630 328 730 386 168 96 667 402
860 525 257 166 849 521 1043 627 168 91 516 256 757 360 416 178 656 247
1025 295 208 27 526 37 675 21 280 -30 658 -149 949 -299 136 -69 446 -258
446 -271 0 -4 50 -367 110 -806 114 -826 120 -857 173 -913 49 -52 94 -67 207
-66 207 1 246 31 362 289 42 94 231 512 421 930 520 1146 491 1080 492 1150 0
109 -74 194 -185 210 -53 7 -124 -10 -810 -200 l-455 -126 -15 23 c-95 142
-475 581 -647 749 -184 179 -415 364 -591 472 -386 239 -661 368 -984 463
l-127 37 16 36 c77 178 124 333 152 501 29 175 36 296 22 357 -40 167 -254
219 -368 90 -41 -47 -50 -78 -63 -226 -19 -217 -64 -387 -155 -576 -158 -329
-413 -586 -745 -751 -227 -112 -401 -155 -670 -161 -157 -5 -204 -2 -307 15
-636 109 -1141 574 -1304 1200 -28 111 -29 119 -29 366 l0 253 93 46 c285 142
457 420 457 738 0 378 -262 711 -630 799 -98 23 -270 26 -360 6z m265 -431
c193 -51 322 -248 287 -437 -43 -231 -258 -371 -482 -314 -115 30 -208 107
-259 215 -23 49 -26 68 -26 161 0 94 3 111 28 161 86 176 267 262 452 214z
m74 -2528 c280 -416 724 -724 1216 -843 293 -71 623 -75 915 -12 443 95 857
343 1136 682 92 113 65 110 269 29 260 -103 732 -348 959 -498 130 -86 341
-260 475 -392 69 -67 122 -125 119 -128 -3 -3 -26 3 -51 14 -87 37 -382 129
-502 156 -201 45 -322 57 -560 58 -530 2 -1011 -96 -1523 -309 -314 -131 -768
-347 -976 -463 -203 -115 -730 -433 -986 -596 -592 -376 -923 -569 -1435 -831
-233 -119 -762 -360 -771 -352 -2 2 6 33 16 69 55 178 90 439 90 670 0 602
-190 1230 -526 1739 -38 58 -71 109 -73 114 -2 4 25 5 60 1 186 -22 479 -1
684 49 549 133 1038 503 1310 993 l29 52 37 -63 c20 -35 60 -97 88 -139z
m-3402 -513 c439 -109 904 -591 1146 -1189 146 -360 210 -670 211 -1025 0
-223 -15 -359 -59 -528 -53 -201 -171 -432 -233 -459 -61 -26 -546 -161 -667
-186 -200 -42 -292 -51 -490 -51 -442 -1 -787 117 -1079 368 -81 70 -227 235
-288 326 -51 77 -130 233 -168 330 -89 232 -90 493 -5 792 113 392 311 714
644 1048 187 187 394 355 658 534 l113 76 62 -6 c35 -4 104 -17 155 -30z
m10163 -1191 c0 -5 -129 -293 -287 -641 -249 -546 -289 -629 -295 -605 -5 15
-37 243 -73 506 l-66 477 26 45 c21 34 35 47 63 55 21 5 168 45 327 89 314 87
305 84 305 74z"/>
<path d="M6093 5475 c-73 -37 -101 -77 -138 -202 -3 -7 -30 -2 -87 18 -89 31
-124 35 -177 19 -135 -39 -199 -192 -128 -312 35 -59 69 -84 170 -120 45 -16
85 -32 89 -36 4 -4 -4 -49 -18 -101 -34 -130 -20 -196 55 -264 65 -59 143 -71
221 -36 79 36 112 79 144 192 9 31 18 57 20 57 1 0 42 -13 89 -30 48 -16 102
-30 119 -30 124 0 218 94 218 215 0 61 -17 103 -59 148 -31 34 -69 54 -173 91
l-76 28 19 66 c25 88 24 136 -5 198 -52 111 -173 153 -283 99z"/>
</g>
</svg>
