<svg xmlns="http://www.w3.org/2000/svg" version="1.1" xmlns:xlink="http://www.w3.org/1999/xlink" xmlns:svgjs="http://svgjs.com/svgjs" width="1440" height="560" preserveAspectRatio="none" viewBox="0 0 1440 560"><g mask="url(&quot;#SvgjsMask1251&quot;)" fill="none"><g transform="translate(0, 0)" stroke-linecap="round"><path d="M34 129.31 L34 430.69" stroke-width="36.75" stroke="rgba(58, 124, 195, 0.15)"></path><path d="M83 120.03 L83 439.98" stroke-width="36.75" stroke="rgba(242, 130, 0, 0.15)"></path><path d="M132 48.18 L132 511.82" stroke-width="36.75" stroke="rgba(242, 130, 0, 0.15)"></path><path d="M181 218.78 L181 341.22" stroke-width="36.75" stroke="rgba(58, 124, 195, 0.15)"></path><path d="M230 78.15 L230 481.86" stroke-width="36.75" stroke="rgba(58, 124, 195, 0.15)"></path><path d="M279 116.1 L279 443.89" stroke-width="36.75" stroke="rgba(242, 130, 0, 0.15)"></path><path d="M328 177.44 L328 382.56" stroke-width="36.75" stroke="rgba(242, 130, 0, 0.15)"></path><path d="M377 112.99 L377 447.01" stroke-width="36.75" stroke="rgba(58, 124, 195, 0.15)"></path><path d="M426 222.66 L426 337.33" stroke-width="36.75" stroke="rgba(58, 124, 195, 0.15)"></path><path d="M475 250.99 L475 309.01" stroke-width="36.75" stroke="rgba(58, 124, 195, 0.15)"></path><path d="M524 229.16 L524 330.84" stroke-width="36.75" stroke="rgba(58, 124, 195, 0.15)"></path><path d="M573 32.53 L573 527.47" stroke-width="36.75" stroke="rgba(242, 130, 0, 0.15)"></path><path d="M622 152.64 L622 407.36" stroke-width="36.75" stroke="rgba(242, 130, 0, 0.15)"></path><path d="M671 46.87 L671 513.13" stroke-width="36.75" stroke="rgba(58, 124, 195, 0.15)"></path><path d="M720 173.16 L720 386.85" stroke-width="36.75" stroke="rgba(58, 124, 195, 0.15)"></path><path d="M769 195.83 L769 364.17" stroke-width="36.75" stroke="rgba(58, 124, 195, 0.15)"></path><path d="M818 243.69 L818 316.31" stroke-width="36.75" stroke="rgba(58, 124, 195, 0.15)"></path><path d="M867 25.22 L867 534.77" stroke-width="36.75" stroke="rgba(242, 130, 0, 0.15)"></path><path d="M916 240.73 L916 319.27" stroke-width="36.75" stroke="rgba(58, 124, 195, 0.15)"></path><path d="M965 36.34 L965 523.66" stroke-width="36.75" stroke="rgba(242, 130, 0, 0.15)"></path><path d="M1014 112.5 L1014 447.5" stroke-width="36.75" stroke="rgba(242, 130, 0, 0.15)"></path><path d="M1063 139.46 L1063 420.54" stroke-width="36.75" stroke="rgba(242, 130, 0, 0.15)"></path><path d="M1112 251.87 L1112 308.13" stroke-width="36.75" stroke="rgba(58, 124, 195, 0.15)"></path><path d="M1161 220.4 L1161 339.61" stroke-width="36.75" stroke="rgba(242, 130, 0, 0.15)"></path><path d="M1210 47.07 L1210 512.93" stroke-width="36.75" stroke="rgba(242, 130, 0, 0.15)"></path><path d="M1259 151.16 L1259 408.85" stroke-width="36.75" stroke="rgba(58, 124, 195, 0.15)"></path><path d="M1308 45.12 L1308 514.88" stroke-width="36.75" stroke="rgba(58, 124, 195, 0.15)"></path><path d="M1357 204.36 L1357 355.64" stroke-width="36.75" stroke="rgba(58, 124, 195, 0.15)"></path><path d="M1406 230.41 L1406 329.6" stroke-width="36.75" stroke="rgba(58, 124, 195, 0.15)"></path></g></g><defs><mask id="SvgjsMask1251"><rect width="1440" height="560" fill="#ffffff"></rect></mask></defs></svg>