<svg xmlns="http://www.w3.org/2000/svg" version="1.1" xmlns:xlink="http://www.w3.org/1999/xlink" xmlns:svgjs="http://svgjs.com/svgjs" width="1920" height="1080" preserveAspectRatio="none" viewBox="0 0 1920 1080"><g mask="url(&quot;#SvgjsMask1034&quot;)" fill="none"><rect width="1920" height="1080" x="0" y="0" fill="#0e2a47"></rect><path d="M146 1060L145 1359" stroke-width="10" stroke="url(#SvgjsLinearGradient1035)" stroke-linecap="round" class="Up"></path><path d="M426 575L425 -12" stroke-width="6" stroke="url(#SvgjsLinearGradient1036)" stroke-linecap="round" class="Down"></path><path d="M968 234L967 -436" stroke-width="6" stroke="url(#SvgjsLinearGradient1036)" stroke-linecap="round" class="Down"></path><path d="M1242 737L1241 1382" stroke-width="6" stroke="url(#SvgjsLinearGradient1035)" stroke-linecap="round" class="Up"></path><path d="M308 65L307 528" stroke-width="8" stroke="url(#SvgjsLinearGradient1035)" stroke-linecap="round" class="Up"></path><path d="M293 873L292 1433" stroke-width="6" stroke="url(#SvgjsLinearGradient1035)" stroke-linecap="round" class="Up"></path><path d="M817 422L816 -325" stroke-width="6" stroke="url(#SvgjsLinearGradient1036)" stroke-linecap="round" class="Down"></path><path d="M402 703L401 386" stroke-width="10" stroke="url(#SvgjsLinearGradient1036)" stroke-linecap="round" class="Down"></path><path d="M1732 724L1731 1123" stroke-width="10" stroke="url(#SvgjsLinearGradient1035)" stroke-linecap="round" class="Up"></path><path d="M530 797L529 389" stroke-width="8" stroke="url(#SvgjsLinearGradient1035)" stroke-linecap="round" class="Up"></path><path d="M1270 518L1269 -180" stroke-width="6" stroke="url(#SvgjsLinearGradient1036)" stroke-linecap="round" class="Down"></path><path d="M255 641L254 1023" stroke-width="6" stroke="url(#SvgjsLinearGradient1036)" stroke-linecap="round" class="Down"></path><path d="M220 854L219 1273" stroke-width="10" stroke="url(#SvgjsLinearGradient1036)" stroke-linecap="round" class="Down"></path><path d="M1014 1048L1013 1548" stroke-width="10" stroke="url(#SvgjsLinearGradient1036)" stroke-linecap="round" class="Down"></path><path d="M578 664L577 107" stroke-width="8" stroke="url(#SvgjsLinearGradient1036)" stroke-linecap="round" class="Down"></path><path d="M1017 614L1016 -165" stroke-width="8" stroke="url(#SvgjsLinearGradient1036)" stroke-linecap="round" class="Down"></path><path d="M1070 1049L1069 1646" stroke-width="6" stroke="url(#SvgjsLinearGradient1036)" stroke-linecap="round" class="Down"></path><path d="M1688 616L1687 1062" stroke-width="8" stroke="url(#SvgjsLinearGradient1036)" stroke-linecap="round" class="Down"></path><path d="M1502 109L1501 824" stroke-width="8" stroke="url(#SvgjsLinearGradient1035)" stroke-linecap="round" class="Up"></path><path d="M879 348L878 -136" stroke-width="6" stroke="url(#SvgjsLinearGradient1036)" stroke-linecap="round" class="Down"></path><path d="M1180 283L1179 810" stroke-width="10" stroke="url(#SvgjsLinearGradient1036)" stroke-linecap="round" class="Down"></path><path d="M1705 468L1704 1251" stroke-width="8" stroke="url(#SvgjsLinearGradient1035)" stroke-linecap="round" class="Up"></path><path d="M1743 22L1742 -435" stroke-width="8" stroke="url(#SvgjsLinearGradient1035)" stroke-linecap="round" class="Up"></path><path d="M510 161L509 441" stroke-width="8" stroke="url(#SvgjsLinearGradient1036)" stroke-linecap="round" class="Down"></path><path d="M670 606L669 172" stroke-width="8" stroke="url(#SvgjsLinearGradient1036)" stroke-linecap="round" class="Down"></path><path d="M1375 1L1374 417" stroke-width="6" stroke="url(#SvgjsLinearGradient1036)" stroke-linecap="round" class="Down"></path><path d="M728 577L727 173" stroke-width="8" stroke="url(#SvgjsLinearGradient1036)" stroke-linecap="round" class="Down"></path><path d="M617 64L616 -539" stroke-width="8" stroke="url(#SvgjsLinearGradient1035)" stroke-linecap="round" class="Up"></path><path d="M1468 882L1467 137" stroke-width="8" stroke="url(#SvgjsLinearGradient1036)" stroke-linecap="round" class="Down"></path><path d="M1220 131L1219 778" stroke-width="10" stroke="url(#SvgjsLinearGradient1036)" stroke-linecap="round" class="Down"></path><path d="M348 650L347 268" stroke-width="6" stroke="url(#SvgjsLinearGradient1035)" stroke-linecap="round" class="Up"></path><path d="M1001 403L1000 -267" stroke-width="10" stroke="url(#SvgjsLinearGradient1036)" stroke-linecap="round" class="Down"></path><path d="M925 167L924 530" stroke-width="10" stroke="url(#SvgjsLinearGradient1035)" stroke-linecap="round" class="Up"></path><path d="M127 27L126 -755" stroke-width="10" stroke="url(#SvgjsLinearGradient1035)" stroke-linecap="round" class="Up"></path><path d="M658 660L657 1283" stroke-width="8" stroke="url(#SvgjsLinearGradient1035)" stroke-linecap="round" class="Up"></path><path d="M11 773L10 203" stroke-width="8" stroke="url(#SvgjsLinearGradient1035)" stroke-linecap="round" class="Up"></path><path d="M687 924L686 1286" stroke-width="10" stroke="url(#SvgjsLinearGradient1036)" stroke-linecap="round" class="Down"></path><path d="M1268 638L1267 1315" stroke-width="8" stroke="url(#SvgjsLinearGradient1036)" stroke-linecap="round" class="Down"></path><path d="M335 1010L334 249" stroke-width="8" stroke="url(#SvgjsLinearGradient1035)" stroke-linecap="round" class="Up"></path><path d="M1136 764L1135 1307" stroke-width="10" stroke="url(#SvgjsLinearGradient1035)" stroke-linecap="round" class="Up"></path><path d="M1073 806L1072 173" stroke-width="8" stroke="url(#SvgjsLinearGradient1035)" stroke-linecap="round" class="Up"></path><path d="M25 149L24 441" stroke-width="8" stroke="url(#SvgjsLinearGradient1035)" stroke-linecap="round" class="Up"></path><path d="M1361 304L1360 -3" stroke-width="6" stroke="url(#SvgjsLinearGradient1035)" stroke-linecap="round" class="Up"></path><path d="M1307 503L1306 230" stroke-width="8" stroke="url(#SvgjsLinearGradient1036)" stroke-linecap="round" class="Down"></path><path d="M1719 477L1718 901" stroke-width="10" stroke="url(#SvgjsLinearGradient1036)" stroke-linecap="round" class="Down"></path><path d="M1255 501L1254 931" stroke-width="6" stroke="url(#SvgjsLinearGradient1036)" stroke-linecap="round" class="Down"></path><path d="M1088 326L1087 696" stroke-width="6" stroke="url(#SvgjsLinearGradient1036)" stroke-linecap="round" class="Down"></path><path d="M1151 438L1150 -316" stroke-width="6" stroke="url(#SvgjsLinearGradient1036)" stroke-linecap="round" class="Down"></path></g><defs><mask id="SvgjsMask1034"><rect width="1920" height="1080" fill="#ffffff"></rect></mask><linearGradient x1="0%" y1="100%" x2="0%" y2="0%" id="SvgjsLinearGradient1035"><stop stop-color="rgba(255, 255, 255, 0)" offset="0"></stop><stop stop-color="rgba(255, 255, 255, 0.13)" offset="1"></stop></linearGradient><linearGradient x1="0%" y1="0%" x2="0%" y2="100%" id="SvgjsLinearGradient1036"><stop stop-color="rgba(255, 255, 255, 0)" offset="0"></stop><stop stop-color="rgba(255, 255, 255, 0.13)" offset="1"></stop></linearGradient></defs></svg>