<svg xmlns="http://www.w3.org/2000/svg" version="1.1" xmlns:xlink="http://www.w3.org/1999/xlink" xmlns:svgjs="http://svgjs.com/svgjs" width="1920" height="1080" preserveAspectRatio="none" viewBox="0 0 1920 1080"><g mask="url(&quot;#SvgjsMask1015&quot;)" fill="none"><path d="M953.7 1133.04C1052.82 1127.95 995.37 979.73 1307.5 952.9 1619.62 926.07 1801.68 489.55 2015.09 466.9" stroke="rgba(255, 146, 0, 0.58)" stroke-width="2"></path><path d="M611.74 1290.74C788.76 1240.7 730.94 745.42 1105.09 744.8 1479.24 744.18 1832.2 1064.69 2091.8 1068.8" stroke="rgba(255, 146, 0, 0.58)" stroke-width="2"></path><path d="M198.28 1122.84C374.35 1112.96 506.51 794.36 822.23 793.78 1137.96 793.2 1134.21 928.78 1446.19 928.78 1758.16 928.78 1910.54 794.55 2070.14 793.78" stroke="rgba(255, 146, 0, 0.58)" stroke-width="2"></path><path d="M268.75 1176.44C500.51 1174.93 685.59 972.61 1170.12 959.79 1654.65 946.97 1814.69 479.08 2071.49 462.99" stroke="rgba(255, 146, 0, 0.58)" stroke-width="2"></path><path d="M178.07 1122.22C404.32 1121.6 595.35 972.99 1069 963.16 1542.65 953.33 1706.69 492.62 1959.93 477.16" stroke="rgba(255, 146, 0, 0.58)" stroke-width="2"></path></g><defs><mask id="SvgjsMask1015"><rect width="1920" height="1080" fill="#ffffff"></rect></mask></defs></svg>